<svg width="24" height="24" viewBox="0 0 24 24" fill="none" xmlns="http://www.w3.org/2000/svg">
<path d="M11.958 0H12.0137C12.2993 0.136011 12.5774 0.287096 12.847 0.452618C15.9496 2.2368 19.0522 4.02155 22.1548 5.80688C22.2748 5.87095 22.3728 5.9696 22.4361 6.09005C22.4994 6.2105 22.525 6.34718 22.5097 6.48237C22.5028 10.2448 22.5097 14.0063 22.5054 17.767C22.465 17.9464 22.3553 18.1027 22.2002 18.2016C18.901 20.1012 15.6015 21.9997 12.3018 23.897C12.2218 23.958 12.1254 23.9935 12.025 23.9992C11.9246 24.0049 11.8249 23.9803 11.7386 23.9287C8.43538 22.0348 5.13533 20.1375 1.83843 18.2367C1.73128 18.1861 1.64153 18.1048 1.58051 18.0032C1.51948 17.9016 1.48992 17.7842 1.49553 17.6658C1.49553 13.9043 1.49553 10.143 1.49553 6.38208C1.48745 6.26421 1.51469 6.1466 1.57379 6.0443C1.63288 5.94199 1.72114 5.85963 1.82728 5.80773C4.92588 4.02584 8.02448 2.2428 11.1231 0.458618C11.3991 0.300888 11.67 0.133728 11.958 0Z" fill="#019639"/>
<path d="M5.49448 7.32643C5.49448 10.429 5.49448 13.5319 5.49448 16.6351C5.49052 16.8069 5.52086 16.9779 5.5837 17.1378C5.64655 17.2978 5.74066 17.4437 5.86052 17.5669C6.09028 17.7939 6.3909 17.9352 6.71225 17.9673C7.03361 17.9995 7.35627 17.9205 7.62642 17.7435C7.80725 17.6206 7.95529 17.4554 8.05763 17.2622C8.15998 17.069 8.21353 16.8537 8.21362 16.6351C8.21362 14.3892 8.20933 12.1432 8.21362 9.89727C10.2613 12.3489 12.3132 14.7972 14.3694 17.242C14.6551 17.5314 15.0088 17.7445 15.3983 17.8616C15.7877 17.9787 16.2003 17.9962 16.5982 17.9124C16.8792 17.857 17.135 17.713 17.328 17.5014C17.5211 17.2899 17.6411 17.022 17.6706 16.7371C17.6752 13.5705 17.6752 10.4042 17.6706 7.23814C17.6411 6.90018 17.486 6.58556 17.2359 6.35635C16.9858 6.12715 16.6588 6 16.3196 6C15.9804 6 15.6534 6.12715 15.4033 6.35635C15.1532 6.58556 14.9981 6.90018 14.9686 7.23814C14.9686 9.52009 14.9549 11.7995 14.9686 14.0806C12.9575 11.7095 10.9713 9.31778 8.96798 6.93811C8.70387 6.59944 8.35421 6.33734 7.95505 6.17882C7.55589 6.0203 7.12168 5.9711 6.69718 6.0363C6.3756 6.0721 6.07748 6.22191 5.85685 6.45858C5.63621 6.69526 5.50766 7.00314 5.49448 7.32643Z" fill="white"/>
</svg>
